<svg width="311" height="570" viewBox="0 0 311 570" fill="none" xmlns="http://www.w3.org/2000/svg">
<g filter="url(#filter0_d_2_1427)">
<path d="M273.902 498.3C273.902 500.9 273.068 503.967 271.402 507.5C269.802 510.967 267.602 514.4 264.802 517.8L262.702 515.9C264.835 513.167 266.368 510.733 267.302 508.6C268.235 506.4 268.735 504.367 268.802 502.5H268.602C267.135 502.5 265.902 502.033 264.902 501.1C263.902 500.1 263.402 498.8 263.402 497.2C263.402 495.667 263.902 494.433 264.902 493.5C265.902 492.5 267.135 492 268.602 492C270.135 492 271.402 492.533 272.402 493.6C273.402 494.667 273.902 496.233 273.902 498.3ZM290.602 498.3C290.602 500.9 289.802 503.967 288.202 507.5C286.602 510.967 284.402 514.4 281.602 517.8L279.402 515.9C281.535 513.167 283.068 510.733 284.002 508.6C284.935 506.4 285.468 504.367 285.602 502.5H285.302C283.835 502.5 282.602 502.033 281.602 501.1C280.668 500.1 280.202 498.8 280.202 497.2C280.202 495.667 280.668 494.433 281.602 493.5C282.602 492.5 283.835 492 285.302 492C286.835 492 288.102 492.533 289.102 493.6C290.102 494.667 290.602 496.233 290.602 498.3Z" fill="black"/>
</g>
<g filter="url(#filter1_d_2_1427)">
<path d="M233.35 542.6H228.65V540.4C228.65 537.4 229.083 535 229.95 533.2C230.883 531.333 232.017 529.733 233.35 528.4C234.683 527 236.017 525.6 237.35 524.2C238.683 522.733 239.783 520.967 240.65 518.9C241.583 516.767 242.05 513.967 242.05 510.5C242.05 505.367 241.117 501.533 239.25 499C237.383 496.467 234.717 495.2 231.25 495.2C226.85 495.2 223.783 496.867 222.05 500.2C220.317 503.467 219.783 508.167 220.45 514.3L212.25 512.7C211.65 509.1 211.917 505.733 213.05 502.6C214.25 499.467 216.383 496.933 219.45 495C222.517 493 226.483 492 231.35 492C236.083 492 239.917 492.833 242.85 494.5C245.783 496.167 247.917 498.333 249.25 501C250.583 503.6 251.25 506.4 251.25 509.4C251.25 512.467 250.75 515.033 249.75 517.1C248.817 519.1 247.617 520.833 246.15 522.3C244.683 523.7 243.117 524.967 241.45 526.1C239.85 527.233 238.35 528.433 236.95 529.7C235.617 530.9 234.55 532.333 233.75 534C233.017 535.667 232.783 537.767 233.05 540.3L233.35 542.6ZM230.85 562C229.183 562 227.817 561.467 226.75 560.4C225.75 559.333 225.25 557.967 225.25 556.3C225.25 554.633 225.75 553.3 226.75 552.3C227.817 551.233 229.183 550.7 230.85 550.7C232.517 550.7 233.883 551.233 234.95 552.3C236.017 553.3 236.55 554.633 236.55 556.3C236.55 557.967 236.017 559.333 234.95 560.4C233.883 561.467 232.517 562 230.85 562Z" fill="black"/>
</g>
<g filter="url(#filter2_d_2_1427)">
<path d="M205.082 558.4V561H189.682V553C187.349 556.133 184.682 558.433 181.682 559.9C178.749 561.3 175.815 562 172.882 562C168.149 562 164.449 560.5 161.782 557.5C159.182 554.433 157.882 550.133 157.882 544.6V519.6C157.882 517.267 157.782 515.9 157.582 515.5C157.382 515.1 156.749 514.833 155.682 514.7L150.182 514.2V511.5H166.082V544.5C166.082 549.433 166.815 552.933 168.282 555C169.815 557 172.015 558 174.882 558C177.015 558 179.349 557.333 181.882 556C184.482 554.667 186.915 552.1 189.182 548.3V519.6C189.182 517.267 189.082 515.9 188.882 515.5C188.682 515.033 188.049 514.767 186.982 514.7L179.482 514.2V511.5H197.382V552.9C197.382 555.233 197.482 556.6 197.682 557C197.882 557.4 198.515 557.667 199.582 557.8L205.082 558.4Z" fill="black"/>
</g>
<g filter="url(#filter3_d_2_1427)">
<path d="M141.918 535.2V537.2C141.918 544.733 140.018 550.767 136.218 555.3C132.485 559.767 127.151 562 120.218 562C113.351 562 108.018 559.767 104.218 555.3C100.485 550.767 98.618 544.733 98.618 537.2V535.2C98.618 527.733 100.485 521.767 104.218 517.3C107.951 512.767 113.285 510.5 120.218 510.5C127.151 510.5 132.485 512.767 136.218 517.3C140.018 521.767 141.918 527.733 141.918 535.2ZM132.918 533.2C132.918 526.267 131.818 521.3 129.618 518.3C127.485 515.233 124.351 513.7 120.218 513.7C116.151 513.7 113.018 515.233 110.818 518.3C108.685 521.3 107.618 526.267 107.618 533.2V539.2C107.618 546.2 108.685 551.233 110.818 554.3C113.018 557.3 116.151 558.8 120.218 558.8C124.351 558.8 127.485 557.3 129.618 554.3C131.818 551.233 132.918 546.2 132.918 539.2V533.2Z" fill="black"/>
</g>
<g filter="url(#filter4_d_2_1427)">
<path d="M80.5 558.4V561H56.4V558.4L61.9 557.8C62.9666 557.667 63.6 557.4 63.8 557C64 556.6 64.1 555.233 64.1 552.9V532L48 500.5C47.3333 499.167 46.8 498.233 46.4 497.7C46.0666 497.1 45.7 496.733 45.3 496.6C44.9666 496.4 44.4333 496.267 43.7 496.2L38.6 495.7V493H62.8V495.7L57.7 496.2C56.7 496.333 56.1666 496.6 56.1 497C56.1 497.4 56.5666 498.567 57.5 500.5L71.1 527.8L85 500.5C86 498.567 86.4666 497.4 86.4 497C86.3333 496.6 85.8 496.333 84.8 496.2L79.7 495.7V493H98.2V495.7L93 496.2C92.3333 496.267 91.8 496.4 91.4 496.6C91.0667 496.733 90.7 497.1 90.3 497.7C89.9666 498.233 89.4666 499.167 88.8 500.5L72.8 531.8V552.9C72.8 555.233 72.9 556.6 73.1 557C73.3 557.4 73.9333 557.667 75 557.8L80.5 558.4Z" fill="black"/>
</g>
<g filter="url(#filter5_d_2_1427)">
<path d="M154.32 412.2V414.2C154.32 421.733 152.42 427.767 148.62 432.3C144.887 436.767 139.554 439 132.62 439C125.754 439 120.42 436.767 116.62 432.3C112.887 427.767 111.02 421.733 111.02 414.2V412.2C111.02 404.733 112.887 398.767 116.62 394.3C120.354 389.767 125.687 387.5 132.62 387.5C139.554 387.5 144.887 389.767 148.62 394.3C152.42 398.767 154.32 404.733 154.32 412.2ZM145.32 410.2C145.32 403.267 144.22 398.3 142.02 395.3C139.887 392.233 136.754 390.7 132.62 390.7C128.554 390.7 125.42 392.233 123.22 395.3C121.087 398.3 120.02 403.267 120.02 410.2V416.2C120.02 423.2 121.087 428.233 123.22 431.3C125.42 434.3 128.554 435.8 132.62 435.8C136.754 435.8 139.887 434.3 142.02 431.3C144.22 428.233 145.32 423.2 145.32 416.2V410.2Z" fill="black"/>
</g>
<g filter="url(#filter6_d_2_1427)">
<path d="M43.8 372.7V370H72.2C80.3333 370 86.5667 372.633 90.9 377.9C95.2333 383.167 97.4 390.6 97.4 400.2V407.7C97.4 417.367 95.2333 424.833 90.9 430.1C86.5667 435.367 80.3333 438 72.2 438H43.8V435.4L49.3 434.8C50.3667 434.667 51 434.4 51.2 434C51.4 433.6 51.5 432.233 51.5 429.9V378.1C51.5 375.767 51.4 374.4 51.2 374C51 373.6 50.3667 373.333 49.3 373.2L43.8 372.7ZM72 373.2H60.2V434.8H72C75.6 434.8 78.5667 434.133 80.9 432.8C83.2333 431.467 84.9667 429.2 86.1 426C87.3 422.733 87.9 418.3 87.9 412.7V395.2C87.9 389.667 87.3 385.3 86.1 382.1C84.9667 378.9 83.2333 376.633 80.9 375.3C78.5667 373.9 75.6 373.2 72 373.2Z" fill="black"/>
</g>
<g filter="url(#filter7_d_2_1427)">
<path d="M306.951 311.7C306.951 314.7 305.951 318.2 303.951 322.2C302.017 326.2 299.317 330.233 295.851 334.3L293.651 332.5C296.384 329.167 298.351 326.1 299.551 323.3C300.751 320.567 301.417 318.133 301.551 316H301.451C299.851 316 298.551 315.5 297.551 314.5C296.551 313.5 296.051 312.2 296.051 310.6C296.051 309 296.551 307.7 297.551 306.7C298.551 305.7 299.851 305.2 301.451 305.2C303.051 305.2 304.351 305.767 305.351 306.9C306.417 307.967 306.951 309.567 306.951 311.7Z" fill="black"/>
</g>
<g filter="url(#filter8_d_2_1427)">
<path d="M264.595 270.3C264.729 270.233 265.529 270.2 266.995 270.2C269.662 270.267 271.995 270.767 273.995 271.7L275.195 272.4L276.795 271.3L278.295 270.2H279.195C279.795 270.2 280.195 270.3 280.395 270.5L280.695 270.8V277.2V283.6L280.395 283.9L280.095 284.2H278.195H276.295L275.995 283.9C275.795 283.7 275.695 283.267 275.695 282.6C275.362 278.4 273.195 275.8 269.195 274.8C267.729 274.533 265.895 274.5 263.695 274.7C263.495 274.767 263.329 274.8 263.195 274.8C259.862 275.533 258.095 277.267 257.895 280C257.762 282 258.695 283.6 260.695 284.8C261.695 285.4 263.795 286.033 266.995 286.7C269.795 287.233 271.329 287.567 271.595 287.7C275.929 288.767 279.162 291.133 281.295 294.8C281.429 295.067 281.562 295.3 281.695 295.5C282.629 297.433 283.129 299.267 283.195 301C283.329 304.933 282.362 308.167 280.295 310.7C278.829 312.7 276.662 314.167 273.795 315.1C269.862 316.433 265.962 316.567 262.095 315.5C260.162 314.9 258.595 314.1 257.395 313.1L256.895 312.8L255.095 314.2C253.362 315.467 252.329 316.1 251.995 316.1C251.395 316.1 250.995 316 250.795 315.8L250.495 315.5V307.9C250.495 302.5 250.662 299.7 250.995 299.5C251.129 299.433 251.829 299.4 253.095 299.4C254.495 299.4 255.262 299.567 255.395 299.9C255.462 300.033 255.562 300.4 255.695 301C257.629 308.8 262.062 312.2 268.995 311.2C272.462 310.8 274.629 309.233 275.495 306.5C275.629 306.1 275.695 305.433 275.695 304.5C275.695 303.567 275.629 302.9 275.495 302.5C275.095 301.167 274.129 299.967 272.595 298.9C271.529 298.167 269.362 297.467 266.095 296.8C262.362 296.133 259.695 295.367 258.095 294.5C256.562 293.767 255.229 292.833 254.095 291.7C253.095 290.7 252.262 289.533 251.595 288.2C250.929 286.8 250.562 285.333 250.495 283.8C250.429 281.8 250.862 279.733 251.795 277.6C252.395 276.4 253.095 275.4 253.895 274.6C255.962 272.333 259.095 270.933 263.295 270.4C263.629 270.333 264.062 270.3 264.595 270.3Z" fill="#38612D"/>
</g>
<g filter="url(#filter9_d_2_1427)">
<path d="M222.262 270.3C223.528 270.1 225.395 270.167 227.862 270.5C231.462 271.1 234.462 272.6 236.862 275C239.395 277.533 241.062 281 241.862 285.4C242.128 287.267 242.262 288.967 242.262 290.5C242.262 290.967 242.128 291.333 241.862 291.6L241.562 291.9H227.962H214.362V293.6C214.362 298.667 215.062 302.4 216.462 304.8C217.995 307.467 220.328 309.3 223.462 310.3C225.062 310.767 226.628 311 228.162 311C229.228 311 229.995 310.933 230.462 310.8C233.662 309.867 235.862 307.4 237.062 303.4C237.195 302.867 237.395 302.467 237.662 302.2L237.962 301.9H239.762H241.562L241.862 302.2C242.262 302.533 242.295 303.233 241.962 304.3C241.362 306.033 240.562 307.567 239.562 308.9C238.562 310.433 237.228 311.767 235.562 312.9C232.962 314.833 229.895 315.9 226.362 316.1C220.362 316.3 215.128 314.233 210.662 309.9C208.862 308.167 207.295 306.033 205.962 303.5C204.295 300.033 203.495 296.3 203.562 292.3C203.628 288.833 204.462 285.433 206.062 282.1C209.062 276.033 213.695 272.233 219.962 270.7C220.695 270.5 221.462 270.367 222.262 270.3ZM226.262 275.2C225.395 274.933 224.262 274.867 222.862 275C219.462 275.733 217.062 277.833 215.662 281.3C214.928 283.367 214.562 285.233 214.562 286.9V287.3H223.762H232.962V286.5C232.762 284.1 232.195 281.867 231.262 279.8C230.062 277.467 228.395 275.933 226.262 275.2Z" fill="#38612D"/>
</g>
<g filter="url(#filter10_d_2_1427)">
<path d="M175.828 270.3C177.095 270.1 178.961 270.167 181.428 270.5C185.028 271.1 188.028 272.6 190.428 275C192.961 277.533 194.628 281 195.428 285.4C195.695 287.267 195.828 288.967 195.828 290.5C195.828 290.967 195.695 291.333 195.428 291.6L195.128 291.9H181.528H167.928V293.6C167.928 298.667 168.628 302.4 170.028 304.8C171.561 307.467 173.895 309.3 177.028 310.3C178.628 310.767 180.195 311 181.728 311C182.795 311 183.561 310.933 184.028 310.8C187.228 309.867 189.428 307.4 190.628 303.4C190.761 302.867 190.961 302.467 191.228 302.2L191.528 301.9H193.328H195.128L195.428 302.2C195.828 302.533 195.861 303.233 195.528 304.3C194.928 306.033 194.128 307.567 193.128 308.9C192.128 310.433 190.795 311.767 189.128 312.9C186.528 314.833 183.461 315.9 179.928 316.1C173.928 316.3 168.695 314.233 164.228 309.9C162.428 308.167 160.861 306.033 159.528 303.5C157.861 300.033 157.061 296.3 157.128 292.3C157.195 288.833 158.028 285.433 159.628 282.1C162.628 276.033 167.261 272.233 173.528 270.7C174.261 270.5 175.028 270.367 175.828 270.3ZM179.828 275.2C178.961 274.933 177.828 274.867 176.428 275C173.028 275.733 170.628 277.833 169.228 281.3C168.495 283.367 168.128 285.233 168.128 286.9V287.3H177.328H186.528V286.5C186.328 284.1 185.761 281.867 184.828 279.8C183.628 277.467 181.961 275.933 179.828 275.2Z" fill="#38612D"/>
</g>
<g filter="url(#filter11_d_2_1427)">
<path d="M122.768 271.4C128.368 271 131.035 270.8 130.768 270.8H131.068V273.2V275.6L131.468 275.1C132.135 274.1 132.968 273.267 133.968 272.6C134.701 272.067 135.801 271.567 137.268 271.1C138.535 270.767 139.901 270.7 141.368 270.9C144.968 271.3 147.435 272.733 148.768 275.2C150.035 277.6 149.901 279.8 148.368 281.8C147.968 282.333 147.435 282.767 146.768 283.1C145.968 283.5 145.068 283.7 144.068 283.7C143.001 283.7 142.068 283.5 141.268 283.1C139.268 282.1 138.335 280.4 138.468 278C138.468 277.4 138.568 276.833 138.768 276.3C138.968 275.833 139.068 275.567 139.068 275.5L138.368 275.7C134.501 276.5 132.268 280.833 131.668 288.7V308.7C131.868 309.1 133.801 309.333 137.468 309.4H141.268V312.2V315H140.368C140.435 315 138.068 314.933 133.268 314.8C129.135 314.733 125.301 314.733 121.768 314.8C117.701 314.933 115.635 315 115.568 315H114.668V312.2V309.4H116.768C120.235 309.4 122.101 309.167 122.368 308.7V280.9C122.101 279.3 121.268 278.3 119.868 277.9C119.135 277.7 118.001 277.567 116.468 277.5H114.668V274.7C114.668 272.833 114.735 271.9 114.868 271.9L122.768 271.4Z" fill="#38612D"/>
</g>
<g filter="url(#filter12_d_2_1427)">
<path d="M44.5 247.9V247.3H75H105.6V247.9C105.667 248.033 106 252 106.6 259.8C107.067 267.267 107.367 271.233 107.5 271.7V272.3H105C103.333 272.3 102.5 272.267 102.5 272.2L102.3 269.8C101.833 264.067 101.033 260.1 99.9 257.9C98.7 255.567 96.3 254.033 92.7 253.3C91.1 253.033 88.7 252.9 85.5 252.9C82.7666 252.967 81.2666 253.167 81 253.5L80.8 253.7V281.2L80.9 308.6L81.3 308.9C81.9 309.167 84.7 309.333 89.7 309.4H95.3V312.2V315H94L83.9 314.8C78.0333 314.733 72.1666 314.733 66.3 314.8L56.2 315H54.9V312.2V309.4H60.5C65.5 309.333 68.3 309.167 68.9 308.9L69.4 308.6V281.2V253.7L69.2 253.5C68.9333 253.167 67.6666 252.967 65.4 252.9H64.7C61.4333 252.9 59.0333 253.033 57.5 253.3C54.6333 253.9 52.5 255 51.1 256.6C49.7666 258.133 48.8 261.233 48.2 265.9C47.8 268.3 47.6 270.4 47.6 272.2C47.6 272.267 46.7666 272.3 45.1 272.3H42.6V271.7C42.6666 271.567 43 267.6 43.6 259.8C44.0666 252.333 44.3666 248.367 44.5 247.9Z" fill="#38612D"/>
</g>
<g filter="url(#filter13_d_2_1427)">
<path d="M241.057 180.6C239.857 185.133 237.59 188.333 234.257 190.2C230.99 192.067 227.357 193 223.357 193C215.957 193 210.424 190.767 206.757 186.3C203.09 181.767 201.257 175.733 201.257 168.2V166.2C201.257 158.733 203.024 152.767 206.557 148.3C210.09 143.767 215.224 141.5 221.957 141.5C225.557 141.5 228.824 142.233 231.757 143.7C234.757 145.167 237.124 147.333 238.857 150.2C240.657 153.067 241.557 156.633 241.557 160.9C241.557 162.9 241.357 165 240.957 167.2H210.257V170.2C210.257 177.2 211.324 182.233 213.457 185.3C215.657 188.3 219.19 189.8 224.057 189.8C227.124 189.8 229.657 189 231.657 187.4C233.724 185.8 235.09 183.033 235.757 179.1L241.057 180.6ZM221.957 144.7C218.024 144.7 215.09 146.2 213.157 149.2C211.224 152.2 210.257 157.133 210.257 164H232.757V163.7C232.89 162.833 232.99 162 233.057 161.2C233.124 160.333 233.157 159.567 233.157 158.9C233.157 153.9 232.124 150.3 230.057 148.1C227.99 145.833 225.29 144.7 221.957 144.7Z" fill="black"/>
</g>
<g filter="url(#filter14_d_2_1427)">
<path d="M188.476 150L173.876 192H167.376L152.676 150C152.009 148.067 151.509 146.9 151.176 146.5C150.842 146.1 150.142 145.833 149.076 145.7L143.976 145.2V142.5H166.776V145.2L161.676 145.7C160.609 145.833 160.042 146.1 159.976 146.5C159.909 146.833 160.209 148 160.876 150L172.976 184.8L184.876 150C185.542 148 185.842 146.833 185.776 146.5C185.709 146.1 185.142 145.833 184.076 145.7L178.876 145.2V142.5H197.076V145.2L191.976 145.7C190.909 145.833 190.209 146.1 189.876 146.5C189.609 146.833 189.142 148 188.476 150Z" fill="black"/>
</g>
<g filter="url(#filter15_d_2_1427)">
<path d="M139.965 166.2V168.2C139.965 175.733 138.065 181.767 134.265 186.3C130.532 190.767 125.198 193 118.265 193C111.398 193 106.065 190.767 102.265 186.3C98.5315 181.767 96.6649 175.733 96.6649 168.2V166.2C96.6649 158.733 98.5315 152.767 102.265 148.3C105.998 143.767 111.332 141.5 118.265 141.5C125.198 141.5 130.532 143.767 134.265 148.3C138.065 152.767 139.965 158.733 139.965 166.2ZM130.965 164.2C130.965 157.267 129.865 152.3 127.665 149.3C125.532 146.233 122.398 144.7 118.265 144.7C114.198 144.7 111.065 146.233 108.865 149.3C106.732 152.3 105.665 157.267 105.665 164.2V170.2C105.665 177.2 106.732 182.233 108.865 185.3C111.065 188.3 114.198 189.8 118.265 189.8C122.398 189.8 125.532 188.3 127.665 185.3C129.865 182.233 130.965 177.2 130.965 170.2V164.2Z" fill="black"/>
</g>
<g filter="url(#filter16_d_2_1427)">
<path d="M86.6 175.5H89.3V192H43.8V189.4L49.3 188.8C50.3667 188.667 51 188.4 51.2 188C51.4 187.6 51.5 186.233 51.5 183.9V132.1C51.5 129.767 51.4 128.4 51.2 128C51 127.6 50.3667 127.333 49.3 127.2L43.8 126.7V124H67.9V126.7L62.4 127.2C61.3333 127.333 60.7 127.6 60.5 128C60.3 128.4 60.2 129.767 60.2 132.1V188.8H78.3C79.9 188.8 81.0333 188.767 81.7 188.7C82.3667 188.567 82.8 188.333 83 188C83.2667 187.6 83.5 187 83.7 186.2L86.6 175.5Z" fill="black"/>
</g>
<g filter="url(#filter17_d_2_1427)">
<path d="M43.8 3.7V1H67.9V3.7L62.4 4.2C61.3333 4.33333 60.7 4.6 60.5 5C60.3 5.4 60.2 6.76667 60.2 9.1V60.9C60.2 63.2333 60.3 64.6 60.5 65C60.7 65.4 61.3333 65.6667 62.4 65.8L67.9 66.4V69H43.8V66.4L49.3 65.8C50.3667 65.6667 51 65.4 51.2 65C51.4 64.6 51.5 63.2333 51.5 60.9V9.1C51.5 6.76667 51.4 5.4 51.2 5C51 4.6 50.3667 4.33333 49.3 4.2L43.8 3.7Z" fill="black"/>
</g>
<g filter="url(#filter18_d_2_1427)">
<path d="M31.2195 20.6C31.2195 22.1333 30.7195 23.4 29.7195 24.4C28.7862 25.3333 27.5529 25.8 26.0195 25.8C24.4862 25.8 23.2195 25.2667 22.2195 24.2C21.2195 23.1333 20.7195 21.5667 20.7195 19.5C20.7195 16.9 21.5195 13.8667 23.1195 10.4C24.7862 6.93334 27.0195 3.46667 29.8195 0L31.9195 1.90001C29.8529 4.63334 28.3529 7.1 27.4195 9.3C26.4862 11.4333 25.9529 13.4667 25.8195 15.4H26.0195C27.5529 15.4 28.7862 15.9 29.7195 16.9C30.7195 17.8333 31.2195 19.0667 31.2195 20.6ZM14.4195 20.6C14.4195 22.1333 13.9529 23.4 13.0195 24.4C12.0862 25.3333 10.8529 25.8 9.31953 25.8C7.7862 25.8 6.51953 25.2667 5.51953 24.2C4.51953 23.1333 4.01953 21.5667 4.01953 19.5C4.01953 16.9 4.81953 13.8667 6.41953 10.4C8.01953 6.93334 10.2195 3.46667 13.0195 0L15.2195 1.90001C13.1529 4.63334 11.6195 7.1 10.6195 9.3C9.6862 11.4333 9.15286 13.4667 9.01953 15.4H9.31953C10.8529 15.4 12.0862 15.9 13.0195 16.9C13.9529 17.8333 14.4195 19.0667 14.4195 20.6Z" fill="black"/>
</g>
<defs>
<filter id="filter0_d_2_1427" x="258.702" y="492" width="35.9" height="33.8" filterUnits="userSpaceOnUse" color-interpolation-filters="sRGB">
<feFlood flood-opacity="0" result="BackgroundImageFix"/>
<feColorMatrix in="SourceAlpha" type="matrix" values="0 0 0 0 0 0 0 0 0 0 0 0 0 0 0 0 0 0 127 0" result="hardAlpha"/>
<feOffset dy="4"/>
<feGaussianBlur stdDeviation="2"/>
<feComposite in2="hardAlpha" operator="out"/>
<feColorMatrix type="matrix" values="0 0 0 0 0 0 0 0 0 0 0 0 0 0 0 0 0 0 0.25 0"/>
<feBlend mode="normal" in2="BackgroundImageFix" result="effect1_dropShadow_2_1427"/>
<feBlend mode="normal" in="SourceGraphic" in2="effect1_dropShadow_2_1427" result="shape"/>
</filter>
<filter id="filter1_d_2_1427" x="207.938" y="492" width="47.3115" height="78" filterUnits="userSpaceOnUse" color-interpolation-filters="sRGB">
<feFlood flood-opacity="0" result="BackgroundImageFix"/>
<feColorMatrix in="SourceAlpha" type="matrix" values="0 0 0 0 0 0 0 0 0 0 0 0 0 0 0 0 0 0 127 0" result="hardAlpha"/>
<feOffset dy="4"/>
<feGaussianBlur stdDeviation="2"/>
<feComposite in2="hardAlpha" operator="out"/>
<feColorMatrix type="matrix" values="0 0 0 0 0 0 0 0 0 0 0 0 0 0 0 0 0 0 0.25 0"/>
<feBlend mode="normal" in2="BackgroundImageFix" result="effect1_dropShadow_2_1427"/>
<feBlend mode="normal" in="SourceGraphic" in2="effect1_dropShadow_2_1427" result="shape"/>
</filter>
<filter id="filter2_d_2_1427" x="146.182" y="511.5" width="62.9" height="58.5" filterUnits="userSpaceOnUse" color-interpolation-filters="sRGB">
<feFlood flood-opacity="0" result="BackgroundImageFix"/>
<feColorMatrix in="SourceAlpha" type="matrix" values="0 0 0 0 0 0 0 0 0 0 0 0 0 0 0 0 0 0 127 0" result="hardAlpha"/>
<feOffset dy="4"/>
<feGaussianBlur stdDeviation="2"/>
<feComposite in2="hardAlpha" operator="out"/>
<feColorMatrix type="matrix" values="0 0 0 0 0 0 0 0 0 0 0 0 0 0 0 0 0 0 0.25 0"/>
<feBlend mode="normal" in2="BackgroundImageFix" result="effect1_dropShadow_2_1427"/>
<feBlend mode="normal" in="SourceGraphic" in2="effect1_dropShadow_2_1427" result="shape"/>
</filter>
<filter id="filter3_d_2_1427" x="94.618" y="510.5" width="51.3" height="59.5" filterUnits="userSpaceOnUse" color-interpolation-filters="sRGB">
<feFlood flood-opacity="0" result="BackgroundImageFix"/>
<feColorMatrix in="SourceAlpha" type="matrix" values="0 0 0 0 0 0 0 0 0 0 0 0 0 0 0 0 0 0 127 0" result="hardAlpha"/>
<feOffset dy="4"/>
<feGaussianBlur stdDeviation="2"/>
<feComposite in2="hardAlpha" operator="out"/>
<feColorMatrix type="matrix" values="0 0 0 0 0 0 0 0 0 0 0 0 0 0 0 0 0 0 0.25 0"/>
<feBlend mode="normal" in2="BackgroundImageFix" result="effect1_dropShadow_2_1427"/>
<feBlend mode="normal" in="SourceGraphic" in2="effect1_dropShadow_2_1427" result="shape"/>
</filter>
<filter id="filter4_d_2_1427" x="34.6" y="493" width="67.6" height="76" filterUnits="userSpaceOnUse" color-interpolation-filters="sRGB">
<feFlood flood-opacity="0" result="BackgroundImageFix"/>
<feColorMatrix in="SourceAlpha" type="matrix" values="0 0 0 0 0 0 0 0 0 0 0 0 0 0 0 0 0 0 127 0" result="hardAlpha"/>
<feOffset dy="4"/>
<feGaussianBlur stdDeviation="2"/>
<feComposite in2="hardAlpha" operator="out"/>
<feColorMatrix type="matrix" values="0 0 0 0 0 0 0 0 0 0 0 0 0 0 0 0 0 0 0.25 0"/>
<feBlend mode="normal" in2="BackgroundImageFix" result="effect1_dropShadow_2_1427"/>
<feBlend mode="normal" in="SourceGraphic" in2="effect1_dropShadow_2_1427" result="shape"/>
</filter>
<filter id="filter5_d_2_1427" x="107.02" y="387.5" width="51.3" height="59.5" filterUnits="userSpaceOnUse" color-interpolation-filters="sRGB">
<feFlood flood-opacity="0" result="BackgroundImageFix"/>
<feColorMatrix in="SourceAlpha" type="matrix" values="0 0 0 0 0 0 0 0 0 0 0 0 0 0 0 0 0 0 127 0" result="hardAlpha"/>
<feOffset dy="4"/>
<feGaussianBlur stdDeviation="2"/>
<feComposite in2="hardAlpha" operator="out"/>
<feColorMatrix type="matrix" values="0 0 0 0 0 0 0 0 0 0 0 0 0 0 0 0 0 0 0.25 0"/>
<feBlend mode="normal" in2="BackgroundImageFix" result="effect1_dropShadow_2_1427"/>
<feBlend mode="normal" in="SourceGraphic" in2="effect1_dropShadow_2_1427" result="shape"/>
</filter>
<filter id="filter6_d_2_1427" x="39.8" y="370" width="61.6" height="76" filterUnits="userSpaceOnUse" color-interpolation-filters="sRGB">
<feFlood flood-opacity="0" result="BackgroundImageFix"/>
<feColorMatrix in="SourceAlpha" type="matrix" values="0 0 0 0 0 0 0 0 0 0 0 0 0 0 0 0 0 0 127 0" result="hardAlpha"/>
<feOffset dy="4"/>
<feGaussianBlur stdDeviation="2"/>
<feComposite in2="hardAlpha" operator="out"/>
<feColorMatrix type="matrix" values="0 0 0 0 0 0 0 0 0 0 0 0 0 0 0 0 0 0 0.25 0"/>
<feBlend mode="normal" in2="BackgroundImageFix" result="effect1_dropShadow_2_1427"/>
<feBlend mode="normal" in="SourceGraphic" in2="effect1_dropShadow_2_1427" result="shape"/>
</filter>
<filter id="filter7_d_2_1427" x="289.651" y="305.2" width="21.3" height="37.1" filterUnits="userSpaceOnUse" color-interpolation-filters="sRGB">
<feFlood flood-opacity="0" result="BackgroundImageFix"/>
<feColorMatrix in="SourceAlpha" type="matrix" values="0 0 0 0 0 0 0 0 0 0 0 0 0 0 0 0 0 0 127 0" result="hardAlpha"/>
<feOffset dy="4"/>
<feGaussianBlur stdDeviation="2"/>
<feComposite in2="hardAlpha" operator="out"/>
<feColorMatrix type="matrix" values="0 0 0 0 0 0 0 0 0 0 0 0 0 0 0 0 0 0 0.25 0"/>
<feBlend mode="normal" in2="BackgroundImageFix" result="effect1_dropShadow_2_1427"/>
<feBlend mode="normal" in="SourceGraphic" in2="effect1_dropShadow_2_1427" result="shape"/>
</filter>
<filter id="filter8_d_2_1427" x="246.489" y="270.2" width="40.7188" height="54.0111" filterUnits="userSpaceOnUse" color-interpolation-filters="sRGB">
<feFlood flood-opacity="0" result="BackgroundImageFix"/>
<feColorMatrix in="SourceAlpha" type="matrix" values="0 0 0 0 0 0 0 0 0 0 0 0 0 0 0 0 0 0 127 0" result="hardAlpha"/>
<feOffset dy="4"/>
<feGaussianBlur stdDeviation="2"/>
<feComposite in2="hardAlpha" operator="out"/>
<feColorMatrix type="matrix" values="0 0 0 0 0 0 0 0 0 0 0 0 0 0 0 0 0 0 0.25 0"/>
<feBlend mode="normal" in2="BackgroundImageFix" result="effect1_dropShadow_2_1427"/>
<feBlend mode="normal" in="SourceGraphic" in2="effect1_dropShadow_2_1427" result="shape"/>
</filter>
<filter id="filter9_d_2_1427" x="199.558" y="270.188" width="46.7039" height="53.9258" filterUnits="userSpaceOnUse" color-interpolation-filters="sRGB">
<feFlood flood-opacity="0" result="BackgroundImageFix"/>
<feColorMatrix in="SourceAlpha" type="matrix" values="0 0 0 0 0 0 0 0 0 0 0 0 0 0 0 0 0 0 127 0" result="hardAlpha"/>
<feOffset dy="4"/>
<feGaussianBlur stdDeviation="2"/>
<feComposite in2="hardAlpha" operator="out"/>
<feColorMatrix type="matrix" values="0 0 0 0 0 0 0 0 0 0 0 0 0 0 0 0 0 0 0.25 0"/>
<feBlend mode="normal" in2="BackgroundImageFix" result="effect1_dropShadow_2_1427"/>
<feBlend mode="normal" in="SourceGraphic" in2="effect1_dropShadow_2_1427" result="shape"/>
</filter>
<filter id="filter10_d_2_1427" x="153.124" y="270.188" width="46.7039" height="53.9258" filterUnits="userSpaceOnUse" color-interpolation-filters="sRGB">
<feFlood flood-opacity="0" result="BackgroundImageFix"/>
<feColorMatrix in="SourceAlpha" type="matrix" values="0 0 0 0 0 0 0 0 0 0 0 0 0 0 0 0 0 0 127 0" result="hardAlpha"/>
<feOffset dy="4"/>
<feGaussianBlur stdDeviation="2"/>
<feComposite in2="hardAlpha" operator="out"/>
<feColorMatrix type="matrix" values="0 0 0 0 0 0 0 0 0 0 0 0 0 0 0 0 0 0 0.25 0"/>
<feBlend mode="normal" in2="BackgroundImageFix" result="effect1_dropShadow_2_1427"/>
<feBlend mode="normal" in="SourceGraphic" in2="effect1_dropShadow_2_1427" result="shape"/>
</filter>
<filter id="filter11_d_2_1427" x="110.668" y="270.788" width="42.9595" height="52.2125" filterUnits="userSpaceOnUse" color-interpolation-filters="sRGB">
<feFlood flood-opacity="0" result="BackgroundImageFix"/>
<feColorMatrix in="SourceAlpha" type="matrix" values="0 0 0 0 0 0 0 0 0 0 0 0 0 0 0 0 0 0 127 0" result="hardAlpha"/>
<feOffset dy="4"/>
<feGaussianBlur stdDeviation="2"/>
<feComposite in2="hardAlpha" operator="out"/>
<feColorMatrix type="matrix" values="0 0 0 0 0 0 0 0 0 0 0 0 0 0 0 0 0 0 0.25 0"/>
<feBlend mode="normal" in2="BackgroundImageFix" result="effect1_dropShadow_2_1427"/>
<feBlend mode="normal" in="SourceGraphic" in2="effect1_dropShadow_2_1427" result="shape"/>
</filter>
<filter id="filter12_d_2_1427" x="38.6" y="247.3" width="72.9" height="75.7" filterUnits="userSpaceOnUse" color-interpolation-filters="sRGB">
<feFlood flood-opacity="0" result="BackgroundImageFix"/>
<feColorMatrix in="SourceAlpha" type="matrix" values="0 0 0 0 0 0 0 0 0 0 0 0 0 0 0 0 0 0 127 0" result="hardAlpha"/>
<feOffset dy="4"/>
<feGaussianBlur stdDeviation="2"/>
<feComposite in2="hardAlpha" operator="out"/>
<feColorMatrix type="matrix" values="0 0 0 0 0 0 0 0 0 0 0 0 0 0 0 0 0 0 0.25 0"/>
<feBlend mode="normal" in2="BackgroundImageFix" result="effect1_dropShadow_2_1427"/>
<feBlend mode="normal" in="SourceGraphic" in2="effect1_dropShadow_2_1427" result="shape"/>
</filter>
<filter id="filter13_d_2_1427" x="197.257" y="141.5" width="48.3" height="59.5" filterUnits="userSpaceOnUse" color-interpolation-filters="sRGB">
<feFlood flood-opacity="0" result="BackgroundImageFix"/>
<feColorMatrix in="SourceAlpha" type="matrix" values="0 0 0 0 0 0 0 0 0 0 0 0 0 0 0 0 0 0 127 0" result="hardAlpha"/>
<feOffset dy="4"/>
<feGaussianBlur stdDeviation="2"/>
<feComposite in2="hardAlpha" operator="out"/>
<feColorMatrix type="matrix" values="0 0 0 0 0 0 0 0 0 0 0 0 0 0 0 0 0 0 0.25 0"/>
<feBlend mode="normal" in2="BackgroundImageFix" result="effect1_dropShadow_2_1427"/>
<feBlend mode="normal" in="SourceGraphic" in2="effect1_dropShadow_2_1427" result="shape"/>
</filter>
<filter id="filter14_d_2_1427" x="139.976" y="142.5" width="61.1" height="57.5" filterUnits="userSpaceOnUse" color-interpolation-filters="sRGB">
<feFlood flood-opacity="0" result="BackgroundImageFix"/>
<feColorMatrix in="SourceAlpha" type="matrix" values="0 0 0 0 0 0 0 0 0 0 0 0 0 0 0 0 0 0 127 0" result="hardAlpha"/>
<feOffset dy="4"/>
<feGaussianBlur stdDeviation="2"/>
<feComposite in2="hardAlpha" operator="out"/>
<feColorMatrix type="matrix" values="0 0 0 0 0 0 0 0 0 0 0 0 0 0 0 0 0 0 0.25 0"/>
<feBlend mode="normal" in2="BackgroundImageFix" result="effect1_dropShadow_2_1427"/>
<feBlend mode="normal" in="SourceGraphic" in2="effect1_dropShadow_2_1427" result="shape"/>
</filter>
<filter id="filter15_d_2_1427" x="92.6649" y="141.5" width="51.3" height="59.5" filterUnits="userSpaceOnUse" color-interpolation-filters="sRGB">
<feFlood flood-opacity="0" result="BackgroundImageFix"/>
<feColorMatrix in="SourceAlpha" type="matrix" values="0 0 0 0 0 0 0 0 0 0 0 0 0 0 0 0 0 0 127 0" result="hardAlpha"/>
<feOffset dy="4"/>
<feGaussianBlur stdDeviation="2"/>
<feComposite in2="hardAlpha" operator="out"/>
<feColorMatrix type="matrix" values="0 0 0 0 0 0 0 0 0 0 0 0 0 0 0 0 0 0 0.25 0"/>
<feBlend mode="normal" in2="BackgroundImageFix" result="effect1_dropShadow_2_1427"/>
<feBlend mode="normal" in="SourceGraphic" in2="effect1_dropShadow_2_1427" result="shape"/>
</filter>
<filter id="filter16_d_2_1427" x="39.8" y="124" width="53.5" height="76" filterUnits="userSpaceOnUse" color-interpolation-filters="sRGB">
<feFlood flood-opacity="0" result="BackgroundImageFix"/>
<feColorMatrix in="SourceAlpha" type="matrix" values="0 0 0 0 0 0 0 0 0 0 0 0 0 0 0 0 0 0 127 0" result="hardAlpha"/>
<feOffset dy="4"/>
<feGaussianBlur stdDeviation="2"/>
<feComposite in2="hardAlpha" operator="out"/>
<feColorMatrix type="matrix" values="0 0 0 0 0 0 0 0 0 0 0 0 0 0 0 0 0 0 0.25 0"/>
<feBlend mode="normal" in2="BackgroundImageFix" result="effect1_dropShadow_2_1427"/>
<feBlend mode="normal" in="SourceGraphic" in2="effect1_dropShadow_2_1427" result="shape"/>
</filter>
<filter id="filter17_d_2_1427" x="39.8" y="1" width="32.1" height="76" filterUnits="userSpaceOnUse" color-interpolation-filters="sRGB">
<feFlood flood-opacity="0" result="BackgroundImageFix"/>
<feColorMatrix in="SourceAlpha" type="matrix" values="0 0 0 0 0 0 0 0 0 0 0 0 0 0 0 0 0 0 127 0" result="hardAlpha"/>
<feOffset dy="4"/>
<feGaussianBlur stdDeviation="2"/>
<feComposite in2="hardAlpha" operator="out"/>
<feColorMatrix type="matrix" values="0 0 0 0 0 0 0 0 0 0 0 0 0 0 0 0 0 0 0.25 0"/>
<feBlend mode="normal" in2="BackgroundImageFix" result="effect1_dropShadow_2_1427"/>
<feBlend mode="normal" in="SourceGraphic" in2="effect1_dropShadow_2_1427" result="shape"/>
</filter>
<filter id="filter18_d_2_1427" x="0.0195312" y="0" width="35.9" height="33.8" filterUnits="userSpaceOnUse" color-interpolation-filters="sRGB">
<feFlood flood-opacity="0" result="BackgroundImageFix"/>
<feColorMatrix in="SourceAlpha" type="matrix" values="0 0 0 0 0 0 0 0 0 0 0 0 0 0 0 0 0 0 127 0" result="hardAlpha"/>
<feOffset dy="4"/>
<feGaussianBlur stdDeviation="2"/>
<feComposite in2="hardAlpha" operator="out"/>
<feColorMatrix type="matrix" values="0 0 0 0 0 0 0 0 0 0 0 0 0 0 0 0 0 0 0.25 0"/>
<feBlend mode="normal" in2="BackgroundImageFix" result="effect1_dropShadow_2_1427"/>
<feBlend mode="normal" in="SourceGraphic" in2="effect1_dropShadow_2_1427" result="shape"/>
</filter>
</defs>
</svg>
